<svg width="99" height="89" viewBox="0 0 99 89" fill="none" xmlns="http://www.w3.org/2000/svg">
<path d="M0.5 15L10.5355 25.0355C11.4732 25.9732 12.745 26.5 14.0711 26.5H60.4289C61.755 26.5 63.0268 27.0268 63.9645 27.9645L73.5355 37.5355C74.4732 38.4732 75 39.745 75 41.0711V62.9289C75 64.255 75.5268 65.5268 76.4645 66.4645L98 88M98 65.5L87.4645 54.9645C86.5268 54.0268 85.255 53.5 83.9289 53.5H67M34.5 37V19.247C34.5 16.9014 36.4014 15 38.747 15C42.5306 15 44.4254 10.4254 41.75 7.75L34.5 0.5" stroke="black" stroke-opacity="0.1" stroke-linecap="round" stroke-linejoin="round"/>
</svg>
