<svg width="411" height="77" viewBox="0 0 411 77" fill="none" xmlns="http://www.w3.org/2000/svg">
<path d="M24.75 57.51C10.71 57.69 4.89354e-05 46.71 4.89354e-05 33.66C4.89354e-05 20.61 10.71 9.72 24.75 9.9C33.7501 9.99 42.03 14.04 46.1701 23.31L32.7601 30.51C31.3201 27.45 28.4401 25.11 24.75 25.11C19.62 25.11 16.2 28.89 16.2 33.66C16.2 38.43 19.62 42.3 24.75 42.3C28.4401 42.3 31.3201 39.96 32.7601 36.9L46.1701 44.1C42.03 53.37 33.7501 57.42 24.75 57.51ZM75.4629 57.6C61.4229 57.6 50.7129 46.8 50.7129 33.66C50.7129 20.61 61.4229 9.81 75.4629 9.81C89.5029 9.81 100.213 20.61 100.213 33.66C100.213 46.8 89.5029 57.6 75.4629 57.6ZM75.4629 42.39C80.5929 42.39 84.0129 38.43 84.0129 33.75C84.0129 28.98 80.5929 25.02 75.4629 25.02C70.3329 25.02 66.9129 28.98 66.9129 33.75C66.9129 38.43 70.3329 42.39 75.4629 42.39ZM131.835 25.65C125.895 25.65 123.645 30.42 123.645 36.09V56.25H107.445V34.11C107.445 20.88 115.185 9.9 131.835 9.9C148.485 9.9 156.225 20.88 156.225 34.11V56.25H140.025V36.09C140.025 30.42 137.775 25.65 131.835 25.65ZM190.749 57.69C176.079 57.69 169.239 49.05 169.239 37.08V24.75H161.589V11.25H169.239V0H185.439V11.25H200.199V24.75H185.439V36.54C185.439 40.86 188.049 43.29 192.279 43.29C194.529 43.29 198.039 42.66 200.199 41.49V55.8C197.949 57.06 193.809 57.69 190.749 57.69ZM227.626 57.6C214.486 57.6 205.576 46.8 205.576 33.66C205.576 20.61 216.286 9.81 230.326 9.81C244.726 9.81 255.076 19.89 255.076 33.66V56.25H239.776V52.92C236.896 55.89 232.846 57.6 227.626 57.6ZM230.326 42.39C235.456 42.39 238.876 38.43 238.876 33.75C238.876 28.98 235.456 25.02 230.326 25.02C225.196 25.02 221.776 28.98 221.776 33.75C221.776 38.43 225.196 42.39 230.326 42.39ZM280.266 76.95H264.066V33.66C264.066 19.89 274.416 9.9 288.816 9.9C302.856 9.9 313.566 20.61 313.566 33.66C313.566 48.06 304.026 57.6 289.716 57.6C286.386 57.6 283.056 56.61 280.266 55.08V76.95ZM288.816 42.39C293.946 42.39 297.366 38.43 297.366 33.75C297.366 28.98 293.946 25.11 288.816 25.11C283.686 25.11 280.266 28.98 280.266 33.75C280.266 38.43 283.686 42.39 288.816 42.39ZM346.315 57.69C331.645 57.69 324.805 49.05 324.805 37.08V24.75H317.155V11.25H324.805V0H341.005V11.25H355.765V24.75H341.005V36.54C341.005 40.86 343.615 43.29 347.845 43.29C350.095 43.29 353.605 42.66 355.765 41.49V55.8C353.515 57.06 349.375 57.69 346.315 57.69ZM385.893 57.6C371.853 57.6 361.143 46.8 361.143 33.66C361.143 20.61 371.853 9.81 385.893 9.81C399.933 9.81 410.643 20.61 410.643 33.66C410.643 46.8 399.933 57.6 385.893 57.6ZM385.893 42.39C391.023 42.39 394.443 38.43 394.443 33.75C394.443 28.98 391.023 25.02 385.893 25.02C380.763 25.02 377.343 28.98 377.343 33.75C377.343 38.43 380.763 42.39 385.893 42.39Z" fill="black"/>
</svg>
